<mxfile host="app.diagrams.net" modified="2024-03-10T17:40:17.584Z" agent="Mozilla/5.0 (Windows NT 10.0; Win64; x64) AppleWebKit/537.36 (KHTML, like Gecko) Chrome/122.0.0.0 Safari/537.36 Edg/122.0.0.0" etag="2ABtt_Vf_h_HxxQVf5Gv" version="24.0.1" type="github">
  <diagram name="Page-1" id="sUq7ddAUf6oz70oRrUfR">
    <mxGraphModel dx="1933" dy="651" grid="1" gridSize="10" guides="1" tooltips="1" connect="1" arrows="1" fold="1" page="1" pageScale="1" pageWidth="827" pageHeight="1169" math="0" shadow="0">
      <root>
        <mxCell id="0" />
        <mxCell id="1" parent="0" />
        <mxCell id="ynTtSx6pQMrLtShOTwyq-1" value="num_res" style="text;html=1;align=center;verticalAlign=middle;resizable=0;points=[];autosize=1;strokeColor=none;fillColor=none;strokeWidth=0;spacing=0;fontStyle=5;movable=0;rotatable=0;deletable=0;editable=0;locked=1;connectable=0;" parent="1" vertex="1">
          <mxGeometry x="360" y="40" width="70" height="20" as="geometry" />
        </mxCell>
        <mxCell id="ynTtSx6pQMrLtShOTwyq-2" value="mat_utl" style="text;html=1;align=center;verticalAlign=middle;resizable=0;points=[];autosize=1;strokeColor=none;fillColor=none;fontStyle=5;movable=0;rotatable=0;deletable=0;editable=0;locked=1;connectable=0;" parent="1" vertex="1">
          <mxGeometry x="670" y="260" width="70" height="30" as="geometry" />
        </mxCell>
        <mxCell id="ynTtSx6pQMrLtShOTwyq-10" value="" style="edgeStyle=orthogonalEdgeStyle;rounded=0;orthogonalLoop=1;jettySize=auto;html=1;movable=0;resizable=0;rotatable=0;deletable=0;editable=0;locked=1;connectable=0;" parent="1" source="ynTtSx6pQMrLtShOTwyq-3" target="ynTtSx6pQMrLtShOTwyq-1" edge="1">
          <mxGeometry relative="1" as="geometry" />
        </mxCell>
        <mxCell id="ynTtSx6pQMrLtShOTwyq-3" value="mat_adm" style="text;html=1;align=center;verticalAlign=middle;resizable=0;points=[];autosize=1;strokeColor=none;fillColor=none;rotation=0;fillStyle=auto;spacing=0;fontStyle=5;movable=0;rotatable=0;deletable=0;editable=0;locked=1;connectable=0;" parent="1" vertex="1">
          <mxGeometry x="360" y="115" width="70" height="20" as="geometry" />
        </mxCell>
        <mxCell id="ynTtSx6pQMrLtShOTwyq-4" value="num_empr" style="text;html=1;align=center;verticalAlign=middle;resizable=0;points=[];autosize=1;strokeColor=none;fillColor=none;fontStyle=5;movable=0;rotatable=0;deletable=0;editable=0;locked=1;connectable=0;" parent="1" vertex="1">
          <mxGeometry x="355" y="190" width="80" height="30" as="geometry" />
        </mxCell>
        <mxCell id="ynTtSx6pQMrLtShOTwyq-5" value="code_eqt" style="text;html=1;align=center;verticalAlign=middle;resizable=1;points=[];autosize=1;strokeColor=none;fillColor=none;fontStyle=5;movable=1;rotatable=1;deletable=1;editable=1;locked=0;connectable=1;" parent="1" vertex="1">
          <mxGeometry x="100" y="260" width="80" height="30" as="geometry" />
        </mxCell>
        <mxCell id="ynTtSx6pQMrLtShOTwyq-7" value="" style="endArrow=classic;html=1;rounded=0;fontStyle=5;exitX=0.5;exitY=0.25;exitDx=0;exitDy=0;exitPerimeter=0;movable=0;resizable=0;rotatable=0;deletable=0;editable=0;locked=1;connectable=0;" parent="1" source="ynTtSx6pQMrLtShOTwyq-3" target="ynTtSx6pQMrLtShOTwyq-1" edge="1">
          <mxGeometry width="50" height="50" relative="1" as="geometry">
            <mxPoint x="395" y="110" as="sourcePoint" />
            <mxPoint x="470" y="110" as="targetPoint" />
          </mxGeometry>
        </mxCell>
        <mxCell id="ynTtSx6pQMrLtShOTwyq-8" value="" style="endArrow=classic;html=1;rounded=0;entryX=0.5;entryY=0.067;entryDx=0;entryDy=0;entryPerimeter=0;exitX=0.486;exitY=1.15;exitDx=0;exitDy=0;exitPerimeter=0;movable=0;resizable=0;rotatable=0;deletable=0;editable=0;locked=1;connectable=0;" parent="1" source="ynTtSx6pQMrLtShOTwyq-3" target="ynTtSx6pQMrLtShOTwyq-4" edge="1">
          <mxGeometry width="50" height="50" relative="1" as="geometry">
            <mxPoint x="390" y="150" as="sourcePoint" />
            <mxPoint x="396" y="200" as="targetPoint" />
          </mxGeometry>
        </mxCell>
        <mxCell id="ynTtSx6pQMrLtShOTwyq-13" value="" style="endArrow=classic;html=1;rounded=0;exitX=1;exitY=1;exitDx=0;exitDy=0;exitPerimeter=0;entryX=0.614;entryY=0.033;entryDx=0;entryDy=0;entryPerimeter=0;movable=0;resizable=0;rotatable=0;deletable=0;editable=0;locked=1;connectable=0;" parent="1" source="ynTtSx6pQMrLtShOTwyq-1" target="ynTtSx6pQMrLtShOTwyq-2" edge="1">
          <mxGeometry width="50" height="50" relative="1" as="geometry">
            <mxPoint x="470" y="80" as="sourcePoint" />
            <mxPoint x="520" y="30" as="targetPoint" />
          </mxGeometry>
        </mxCell>
        <mxCell id="ynTtSx6pQMrLtShOTwyq-14" value="" style="endArrow=classic;html=1;rounded=0;exitX=1.038;exitY=0.567;exitDx=0;exitDy=0;exitPerimeter=0;entryX=0.086;entryY=0.1;entryDx=0;entryDy=0;entryPerimeter=0;movable=0;resizable=0;rotatable=0;deletable=0;editable=0;locked=1;connectable=0;" parent="1" source="ynTtSx6pQMrLtShOTwyq-4" target="ynTtSx6pQMrLtShOTwyq-2" edge="1">
          <mxGeometry width="50" height="50" relative="1" as="geometry">
            <mxPoint x="440" y="205" as="sourcePoint" />
            <mxPoint x="670" y="260" as="targetPoint" />
          </mxGeometry>
        </mxCell>
        <mxCell id="ynTtSx6pQMrLtShOTwyq-15" value="" style="endArrow=classic;html=1;rounded=0;exitX=1.025;exitY=0.6;exitDx=0;exitDy=0;exitPerimeter=0;entryX=-0.029;entryY=0.6;entryDx=0;entryDy=0;entryPerimeter=0;movable=0;resizable=0;rotatable=0;deletable=0;editable=0;locked=1;connectable=0;" parent="1" source="ynTtSx6pQMrLtShOTwyq-5" target="ynTtSx6pQMrLtShOTwyq-2" edge="1">
          <mxGeometry width="50" height="50" relative="1" as="geometry">
            <mxPoint x="290" y="308" as="sourcePoint" />
            <mxPoint x="677" y="278" as="targetPoint" />
          </mxGeometry>
        </mxCell>
        <mxCell id="ynTtSx6pQMrLtShOTwyq-16" value="" style="endArrow=classic;html=1;rounded=0;exitX=0.663;exitY=0;exitDx=0;exitDy=0;exitPerimeter=0;entryX=0;entryY=1;entryDx=0;entryDy=0;movable=0;resizable=0;rotatable=0;deletable=0;editable=0;locked=1;connectable=0;" parent="1" source="ynTtSx6pQMrLtShOTwyq-5" target="ynTtSx6pQMrLtShOTwyq-17" edge="1">
          <mxGeometry width="50" height="50" relative="1" as="geometry">
            <mxPoint x="110" y="285" as="sourcePoint" />
            <mxPoint x="193" y="160" as="targetPoint" />
          </mxGeometry>
        </mxCell>
        <mxCell id="ynTtSx6pQMrLtShOTwyq-17" value="" style="ellipse;whiteSpace=wrap;html=1;movable=0;resizable=0;rotatable=0;deletable=0;editable=0;locked=1;connectable=0;" parent="1" vertex="1">
          <mxGeometry x="170" y="102.5" width="50" height="45" as="geometry" />
        </mxCell>
        <mxCell id="ynTtSx6pQMrLtShOTwyq-18" value="" style="endArrow=classic;html=1;rounded=0;entryX=1;entryY=0;entryDx=0;entryDy=0;exitX=0.029;exitY=1;exitDx=0;exitDy=0;exitPerimeter=0;movable=0;resizable=0;rotatable=0;deletable=0;editable=0;locked=1;connectable=0;" parent="1" source="ynTtSx6pQMrLtShOTwyq-1" target="ynTtSx6pQMrLtShOTwyq-17" edge="1">
          <mxGeometry width="50" height="50" relative="1" as="geometry">
            <mxPoint x="270" y="90" as="sourcePoint" />
            <mxPoint x="320" y="40" as="targetPoint" />
          </mxGeometry>
        </mxCell>
        <mxCell id="ynTtSx6pQMrLtShOTwyq-19" value="" style="ellipse;whiteSpace=wrap;html=1;movable=0;resizable=0;rotatable=0;deletable=0;editable=0;locked=1;connectable=0;" parent="1" vertex="1">
          <mxGeometry x="250" y="190" width="50" height="45" as="geometry" />
        </mxCell>
        <mxCell id="ynTtSx6pQMrLtShOTwyq-20" value="" style="endArrow=classic;html=1;rounded=0;exitX=0.988;exitY=0.2;exitDx=0;exitDy=0;exitPerimeter=0;entryX=-0.02;entryY=0.733;entryDx=0;entryDy=0;entryPerimeter=0;movable=0;resizable=0;rotatable=0;deletable=0;editable=0;locked=1;connectable=0;" parent="1" source="ynTtSx6pQMrLtShOTwyq-5" target="ynTtSx6pQMrLtShOTwyq-19" edge="1">
          <mxGeometry width="50" height="50" relative="1" as="geometry">
            <mxPoint x="230" y="285" as="sourcePoint" />
            <mxPoint x="280" y="235" as="targetPoint" />
          </mxGeometry>
        </mxCell>
        <mxCell id="ynTtSx6pQMrLtShOTwyq-21" value="" style="endArrow=classic;html=1;rounded=0;entryX=1.06;entryY=0.333;entryDx=0;entryDy=0;entryPerimeter=0;exitX=0.025;exitY=0.567;exitDx=0;exitDy=0;exitPerimeter=0;movable=0;resizable=0;rotatable=0;deletable=0;editable=0;locked=1;connectable=0;" parent="1" source="ynTtSx6pQMrLtShOTwyq-4" target="ynTtSx6pQMrLtShOTwyq-19" edge="1">
          <mxGeometry width="50" height="50" relative="1" as="geometry">
            <mxPoint x="390" y="360" as="sourcePoint" />
            <mxPoint x="440" y="310" as="targetPoint" />
          </mxGeometry>
        </mxCell>
        <mxCell id="ynTtSx6pQMrLtShOTwyq-22" value="num_t_eqt" style="text;html=1;align=center;verticalAlign=middle;resizable=0;points=[];autosize=1;strokeColor=none;fillColor=none;fontStyle=5;movable=0;rotatable=0;deletable=0;editable=0;locked=1;connectable=0;" parent="1" vertex="1">
          <mxGeometry x="-30" y="260" width="80" height="30" as="geometry" />
        </mxCell>
        <mxCell id="ynTtSx6pQMrLtShOTwyq-23" value="" style="endArrow=classic;html=1;rounded=0;movable=0;resizable=0;rotatable=0;deletable=0;editable=0;locked=1;connectable=0;" parent="1" source="ynTtSx6pQMrLtShOTwyq-5" target="ynTtSx6pQMrLtShOTwyq-22" edge="1">
          <mxGeometry width="50" height="50" relative="1" as="geometry">
            <mxPoint x="80" y="328" as="sourcePoint" />
            <mxPoint x="130" y="278" as="targetPoint" />
          </mxGeometry>
        </mxCell>
        <mxCell id="ynTtSx6pQMrLtShOTwyq-24" value="num_int" style="text;html=1;align=center;verticalAlign=middle;resizable=0;points=[];autosize=1;strokeColor=none;fillColor=none;fontStyle=5;movable=0;rotatable=0;deletable=0;editable=0;locked=1;connectable=0;" parent="1" vertex="1">
          <mxGeometry x="335" y="328" width="70" height="30" as="geometry" />
        </mxCell>
        <mxCell id="ynTtSx6pQMrLtShOTwyq-25" value="&lt;b&gt;&lt;u&gt;mat_tech&lt;/u&gt;&lt;/b&gt;" style="text;html=1;align=center;verticalAlign=middle;resizable=0;points=[];autosize=1;strokeColor=none;fillColor=none;movable=0;rotatable=0;deletable=0;editable=0;locked=1;connectable=0;" parent="1" vertex="1">
          <mxGeometry x="665" y="328" width="80" height="30" as="geometry" />
        </mxCell>
        <mxCell id="ynTtSx6pQMrLtShOTwyq-26" value="num_t_int" style="text;html=1;align=center;verticalAlign=middle;resizable=0;points=[];autosize=1;strokeColor=none;fillColor=none;fontStyle=5;movable=0;rotatable=0;deletable=0;editable=0;locked=1;connectable=0;" parent="1" vertex="1">
          <mxGeometry x="330" y="398" width="80" height="30" as="geometry" />
        </mxCell>
        <mxCell id="ynTtSx6pQMrLtShOTwyq-27" value="" style="endArrow=classic;html=1;rounded=0;movable=0;resizable=0;rotatable=0;deletable=0;editable=0;locked=1;connectable=0;" parent="1" source="ynTtSx6pQMrLtShOTwyq-24" target="ynTtSx6pQMrLtShOTwyq-26" edge="1">
          <mxGeometry width="50" height="50" relative="1" as="geometry">
            <mxPoint x="362" y="398" as="sourcePoint" />
            <mxPoint x="320" y="370" as="targetPoint" />
          </mxGeometry>
        </mxCell>
        <mxCell id="ynTtSx6pQMrLtShOTwyq-29" value="" style="ellipse;whiteSpace=wrap;html=1;movable=0;resizable=0;rotatable=0;deletable=0;editable=0;locked=1;connectable=0;" parent="1" vertex="1">
          <mxGeometry x="520" y="320.5" width="50" height="45" as="geometry" />
        </mxCell>
        <mxCell id="ynTtSx6pQMrLtShOTwyq-30" value="" style="endArrow=classic;html=1;rounded=0;entryX=0;entryY=0.5;entryDx=0;entryDy=0;exitX=1.029;exitY=0.533;exitDx=0;exitDy=0;exitPerimeter=0;movable=0;resizable=0;rotatable=0;deletable=0;editable=0;locked=1;connectable=0;" parent="1" source="ynTtSx6pQMrLtShOTwyq-24" target="ynTtSx6pQMrLtShOTwyq-29" edge="1">
          <mxGeometry width="50" height="50" relative="1" as="geometry">
            <mxPoint x="440" y="368" as="sourcePoint" />
            <mxPoint x="490" y="318" as="targetPoint" />
          </mxGeometry>
        </mxCell>
        <mxCell id="ynTtSx6pQMrLtShOTwyq-31" value="" style="endArrow=classic;html=1;rounded=0;entryX=1;entryY=0.5;entryDx=0;entryDy=0;exitX=0.013;exitY=0.4;exitDx=0;exitDy=0;exitPerimeter=0;movable=0;resizable=0;rotatable=0;deletable=0;editable=0;locked=1;connectable=0;" parent="1" source="ynTtSx6pQMrLtShOTwyq-25" target="ynTtSx6pQMrLtShOTwyq-29" edge="1">
          <mxGeometry width="50" height="50" relative="1" as="geometry">
            <mxPoint x="620" y="390" as="sourcePoint" />
            <mxPoint x="670" y="340" as="targetPoint" />
          </mxGeometry>
        </mxCell>
        <mxCell id="ynTtSx6pQMrLtShOTwyq-32" value="" style="endArrow=classic;html=1;rounded=0;entryX=0.071;entryY=1;entryDx=0;entryDy=0;entryPerimeter=0;exitX=0.471;exitY=-0.033;exitDx=0;exitDy=0;exitPerimeter=0;movable=0;resizable=0;rotatable=0;deletable=0;editable=0;locked=1;connectable=0;" parent="1" source="ynTtSx6pQMrLtShOTwyq-24" target="ynTtSx6pQMrLtShOTwyq-2" edge="1">
          <mxGeometry width="50" height="50" relative="1" as="geometry">
            <mxPoint x="405" y="320" as="sourcePoint" />
            <mxPoint x="360" y="290" as="targetPoint" />
          </mxGeometry>
        </mxCell>
        <mxCell id="ynTtSx6pQMrLtShOTwyq-33" value="" style="ellipse;whiteSpace=wrap;html=1;movable=1;resizable=1;rotatable=1;deletable=1;editable=1;locked=0;connectable=1;" parent="1" vertex="1">
          <mxGeometry x="180" y="320.5" width="50" height="45" as="geometry" />
        </mxCell>
        <mxCell id="ynTtSx6pQMrLtShOTwyq-34" value="" style="endArrow=classic;html=1;rounded=0;entryX=1;entryY=0.5;entryDx=0;entryDy=0;exitX=0.014;exitY=0.5;exitDx=0;exitDy=0;exitPerimeter=0;movable=0;resizable=0;rotatable=0;deletable=0;editable=0;locked=1;connectable=0;" parent="1" source="ynTtSx6pQMrLtShOTwyq-24" target="ynTtSx6pQMrLtShOTwyq-33" edge="1">
          <mxGeometry width="50" height="50" relative="1" as="geometry">
            <mxPoint x="330" y="350" as="sourcePoint" />
            <mxPoint x="360" y="290" as="targetPoint" />
          </mxGeometry>
        </mxCell>
        <mxCell id="ynTtSx6pQMrLtShOTwyq-35" value="" style="endArrow=classic;html=1;rounded=0;entryX=0;entryY=0.5;entryDx=0;entryDy=0;exitX=0.525;exitY=1.033;exitDx=0;exitDy=0;exitPerimeter=0;movable=0;resizable=0;rotatable=0;deletable=0;editable=0;locked=1;connectable=0;" parent="1" source="ynTtSx6pQMrLtShOTwyq-5" target="ynTtSx6pQMrLtShOTwyq-33" edge="1">
          <mxGeometry width="50" height="50" relative="1" as="geometry">
            <mxPoint x="60" y="368" as="sourcePoint" />
            <mxPoint x="110" y="318" as="targetPoint" />
          </mxGeometry>
        </mxCell>
        <mxCell id="ynTtSx6pQMrLtShOTwyq-37" value="num_log&amp;nbsp;" style="text;html=1;align=center;verticalAlign=middle;resizable=0;points=[];autosize=1;strokeColor=none;fillColor=none;spacing=0;fontStyle=5;movable=0;rotatable=0;deletable=0;editable=0;locked=1;connectable=0;" parent="1" vertex="1">
          <mxGeometry x="105" y="470" width="70" height="20" as="geometry" />
        </mxCell>
        <mxCell id="ynTtSx6pQMrLtShOTwyq-38" value="&lt;b&gt;&lt;u&gt;num_etat&lt;/u&gt;&lt;/b&gt;" style="text;html=1;align=center;verticalAlign=middle;resizable=0;points=[];autosize=1;strokeColor=none;fillColor=none;movable=0;rotatable=0;deletable=0;editable=0;locked=1;connectable=0;" parent="1" vertex="1">
          <mxGeometry x="-70" y="380" width="80" height="30" as="geometry" />
        </mxCell>
        <mxCell id="ynTtSx6pQMrLtShOTwyq-39" value="" style="ellipse;whiteSpace=wrap;html=1;movable=0;resizable=0;rotatable=0;deletable=0;editable=0;locked=1;connectable=0;" parent="1" vertex="1">
          <mxGeometry x="220" y="390.5" width="50" height="45" as="geometry" />
        </mxCell>
        <mxCell id="ynTtSx6pQMrLtShOTwyq-40" value="" style="endArrow=classic;html=1;rounded=0;exitX=1;exitY=-0.1;exitDx=0;exitDy=0;exitPerimeter=0;entryX=0;entryY=1;entryDx=0;entryDy=0;movable=0;resizable=0;rotatable=0;deletable=0;editable=0;locked=1;connectable=0;" parent="1" source="ynTtSx6pQMrLtShOTwyq-37" target="ynTtSx6pQMrLtShOTwyq-39" edge="1">
          <mxGeometry width="50" height="50" relative="1" as="geometry">
            <mxPoint x="190" y="530" as="sourcePoint" />
            <mxPoint x="260" y="470" as="targetPoint" />
          </mxGeometry>
        </mxCell>
        <mxCell id="ynTtSx6pQMrLtShOTwyq-41" value="" style="endArrow=classic;html=1;rounded=0;entryX=1;entryY=0.278;entryDx=0;entryDy=0;exitX=0.057;exitY=1.033;exitDx=0;exitDy=0;exitPerimeter=0;entryPerimeter=0;movable=0;resizable=0;rotatable=0;deletable=0;editable=0;locked=1;connectable=0;" parent="1" source="ynTtSx6pQMrLtShOTwyq-24" target="ynTtSx6pQMrLtShOTwyq-39" edge="1">
          <mxGeometry width="50" height="50" relative="1" as="geometry">
            <mxPoint x="290" y="500" as="sourcePoint" />
            <mxPoint x="340" y="450" as="targetPoint" />
          </mxGeometry>
        </mxCell>
        <mxCell id="ynTtSx6pQMrLtShOTwyq-43" value="" style="ellipse;whiteSpace=wrap;html=1;movable=0;resizable=0;rotatable=0;deletable=0;editable=0;locked=1;connectable=0;" parent="1" vertex="1">
          <mxGeometry x="-55" y="457.5" width="50" height="45" as="geometry" />
        </mxCell>
        <mxCell id="ynTtSx6pQMrLtShOTwyq-44" value="" style="endArrow=classic;html=1;rounded=0;exitX=0.588;exitY=1.033;exitDx=0;exitDy=0;exitPerimeter=0;movable=0;resizable=0;rotatable=0;deletable=0;editable=0;locked=1;connectable=0;" parent="1" source="ynTtSx6pQMrLtShOTwyq-38" edge="1">
          <mxGeometry width="50" height="50" relative="1" as="geometry">
            <mxPoint x="-50" y="540" as="sourcePoint" />
            <mxPoint x="-23" y="460" as="targetPoint" />
          </mxGeometry>
        </mxCell>
        <mxCell id="ynTtSx6pQMrLtShOTwyq-45" value="" style="endArrow=classic;html=1;rounded=0;entryX=1;entryY=0.5;entryDx=0;entryDy=0;exitX=0.071;exitY=0.5;exitDx=0;exitDy=0;exitPerimeter=0;movable=0;resizable=0;rotatable=0;deletable=0;editable=0;locked=1;connectable=0;" parent="1" source="ynTtSx6pQMrLtShOTwyq-37" target="ynTtSx6pQMrLtShOTwyq-43" edge="1">
          <mxGeometry width="50" height="50" relative="1" as="geometry">
            <mxPoint x="100" y="480" as="sourcePoint" />
            <mxPoint x="20" y="447" as="targetPoint" />
            <Array as="points" />
          </mxGeometry>
        </mxCell>
        <mxCell id="ynTtSx6pQMrLtShOTwyq-46" value="" style="ellipse;whiteSpace=wrap;html=1;movable=0;resizable=0;rotatable=0;deletable=0;editable=0;locked=1;connectable=0;" parent="1" vertex="1">
          <mxGeometry x="50" y="320.5" width="50" height="45" as="geometry" />
        </mxCell>
        <mxCell id="ynTtSx6pQMrLtShOTwyq-47" value="" style="endArrow=classic;html=1;rounded=0;exitX=1.038;exitY=0.233;exitDx=0;exitDy=0;exitPerimeter=0;movable=0;resizable=0;rotatable=0;deletable=0;editable=0;locked=1;connectable=0;" parent="1" source="ynTtSx6pQMrLtShOTwyq-38" target="ynTtSx6pQMrLtShOTwyq-46" edge="1">
          <mxGeometry width="50" height="50" relative="1" as="geometry">
            <mxPoint x="60" y="420" as="sourcePoint" />
            <mxPoint x="110" y="370" as="targetPoint" />
          </mxGeometry>
        </mxCell>
        <mxCell id="ynTtSx6pQMrLtShOTwyq-48" value="" style="endArrow=classic;html=1;rounded=0;exitX=0.363;exitY=0.967;exitDx=0;exitDy=0;exitPerimeter=0;entryX=1;entryY=0;entryDx=0;entryDy=0;movable=0;resizable=0;rotatable=0;deletable=0;editable=0;locked=1;connectable=0;" parent="1" source="ynTtSx6pQMrLtShOTwyq-5" target="ynTtSx6pQMrLtShOTwyq-46" edge="1">
          <mxGeometry width="50" height="50" relative="1" as="geometry">
            <mxPoint x="80" y="428" as="sourcePoint" />
            <mxPoint x="90" y="320" as="targetPoint" />
          </mxGeometry>
        </mxCell>
        <mxCell id="ynTtSx6pQMrLtShOTwyq-49" value="num_emp" style="text;html=1;align=center;verticalAlign=middle;resizable=0;points=[];autosize=1;strokeColor=none;fillColor=none;fontStyle=5;movable=0;rotatable=0;deletable=0;editable=0;locked=1;connectable=0;" parent="1" vertex="1">
          <mxGeometry x="-30" y="110" width="80" height="30" as="geometry" />
        </mxCell>
        <mxCell id="ynTtSx6pQMrLtShOTwyq-50" value="num_dir" style="text;html=1;align=center;verticalAlign=middle;resizable=0;points=[];autosize=1;strokeColor=none;fillColor=none;fontStyle=5;movable=0;rotatable=0;deletable=0;editable=0;locked=1;connectable=0;" parent="1" vertex="1">
          <mxGeometry x="-200" y="30" width="70" height="30" as="geometry" />
        </mxCell>
        <mxCell id="ynTtSx6pQMrLtShOTwyq-51" value="num_ser" style="text;html=1;align=center;verticalAlign=middle;resizable=0;points=[];autosize=1;strokeColor=none;fillColor=none;fontStyle=5;movable=0;rotatable=0;deletable=0;editable=0;locked=1;connectable=0;" parent="1" vertex="1">
          <mxGeometry x="-140" y="197.5" width="70" height="30" as="geometry" />
        </mxCell>
        <mxCell id="ynTtSx6pQMrLtShOTwyq-52" value="num_sd" style="text;html=1;align=center;verticalAlign=middle;resizable=0;points=[];autosize=1;strokeColor=none;fillColor=none;fontStyle=5;movable=0;rotatable=0;deletable=0;editable=0;locked=1;connectable=0;" parent="1" vertex="1">
          <mxGeometry x="70" y="30" width="70" height="30" as="geometry" />
        </mxCell>
        <mxCell id="ynTtSx6pQMrLtShOTwyq-53" value="" style="endArrow=classic;html=1;rounded=0;entryX=0.943;entryY=-0.183;entryDx=0;entryDy=0;entryPerimeter=0;exitX=0.2;exitY=1.133;exitDx=0;exitDy=0;exitPerimeter=0;movable=0;resizable=0;rotatable=0;deletable=0;editable=0;locked=1;connectable=0;" parent="1" source="ynTtSx6pQMrLtShOTwyq-49" target="ynTtSx6pQMrLtShOTwyq-51" edge="1">
          <mxGeometry width="50" height="50" relative="1" as="geometry">
            <mxPoint x="-100" y="152.5" as="sourcePoint" />
            <mxPoint x="-50" y="102.5" as="targetPoint" />
          </mxGeometry>
        </mxCell>
        <mxCell id="ynTtSx6pQMrLtShOTwyq-54" value="" style="endArrow=classic;html=1;rounded=0;exitX=0.213;exitY=-0.033;exitDx=0;exitDy=0;exitPerimeter=0;entryX=1.029;entryY=0.633;entryDx=0;entryDy=0;entryPerimeter=0;movable=0;resizable=0;rotatable=0;deletable=0;editable=0;locked=1;connectable=0;" parent="1" source="ynTtSx6pQMrLtShOTwyq-49" target="ynTtSx6pQMrLtShOTwyq-50" edge="1">
          <mxGeometry width="50" height="50" relative="1" as="geometry">
            <mxPoint x="-90" y="110" as="sourcePoint" />
            <mxPoint x="-120" y="110" as="targetPoint" />
          </mxGeometry>
        </mxCell>
        <mxCell id="ynTtSx6pQMrLtShOTwyq-55" value="" style="endArrow=classic;html=1;rounded=0;entryX=0.071;entryY=1.033;entryDx=0;entryDy=0;entryPerimeter=0;exitX=0.675;exitY=0.033;exitDx=0;exitDy=0;exitPerimeter=0;movable=0;resizable=0;rotatable=0;deletable=0;editable=0;locked=1;connectable=0;" parent="1" source="ynTtSx6pQMrLtShOTwyq-49" target="ynTtSx6pQMrLtShOTwyq-52" edge="1">
          <mxGeometry width="50" height="50" relative="1" as="geometry">
            <mxPoint x="-20" y="75" as="sourcePoint" />
            <mxPoint x="30" y="25" as="targetPoint" />
          </mxGeometry>
        </mxCell>
        <mxCell id="ynTtSx6pQMrLtShOTwyq-56" value="" style="endArrow=classic;html=1;rounded=0;exitX=0.188;exitY=-0.067;exitDx=0;exitDy=0;exitPerimeter=0;entryX=0.78;entryY=1.044;entryDx=0;entryDy=0;entryPerimeter=0;movable=0;resizable=0;rotatable=0;deletable=0;editable=0;locked=1;connectable=0;" parent="1" source="ynTtSx6pQMrLtShOTwyq-5" target="ynTtSx6pQMrLtShOTwyq-57" edge="1">
          <mxGeometry width="50" height="50" relative="1" as="geometry">
            <mxPoint x="-80" y="290" as="sourcePoint" />
            <mxPoint x="-90" y="370" as="targetPoint" />
          </mxGeometry>
        </mxCell>
        <mxCell id="ynTtSx6pQMrLtShOTwyq-57" value="" style="ellipse;whiteSpace=wrap;html=1;movable=0;resizable=0;rotatable=0;deletable=0;editable=0;locked=1;connectable=0;" parent="1" vertex="1">
          <mxGeometry x="55" y="175" width="50" height="45" as="geometry" />
        </mxCell>
        <mxCell id="ynTtSx6pQMrLtShOTwyq-58" value="" style="endArrow=classic;html=1;rounded=0;entryX=0;entryY=0;entryDx=0;entryDy=0;exitX=0.8;exitY=1.167;exitDx=0;exitDy=0;exitPerimeter=0;movable=0;resizable=0;rotatable=0;deletable=0;editable=0;locked=1;connectable=0;" parent="1" source="ynTtSx6pQMrLtShOTwyq-49" target="ynTtSx6pQMrLtShOTwyq-57" edge="1">
          <mxGeometry width="50" height="50" relative="1" as="geometry">
            <mxPoint x="50" y="143" as="sourcePoint" />
            <mxPoint x="370" y="300" as="targetPoint" />
          </mxGeometry>
        </mxCell>
        <mxCell id="ynTtSx6pQMrLtShOTwyq-60" value="" style="endArrow=classic;html=1;rounded=0;exitX=0.5;exitY=1;exitDx=0;exitDy=0;movable=0;resizable=0;rotatable=0;deletable=0;editable=0;locked=1;connectable=0;" parent="1" source="ynTtSx6pQMrLtShOTwyq-29" edge="1">
          <mxGeometry width="50" height="50" relative="1" as="geometry">
            <mxPoint x="500" y="478" as="sourcePoint" />
            <mxPoint x="545" y="390" as="targetPoint" />
          </mxGeometry>
        </mxCell>
        <mxCell id="ynTtSx6pQMrLtShOTwyq-62" value="" style="endArrow=classic;html=1;rounded=0;exitX=0.5;exitY=1;exitDx=0;exitDy=0;movable=0;resizable=0;rotatable=0;deletable=0;editable=0;locked=1;connectable=0;" parent="1" source="ynTtSx6pQMrLtShOTwyq-19" edge="1">
          <mxGeometry width="50" height="50" relative="1" as="geometry">
            <mxPoint x="280" y="240" as="sourcePoint" />
            <mxPoint x="275" y="260" as="targetPoint" />
          </mxGeometry>
        </mxCell>
        <mxCell id="ynTtSx6pQMrLtShOTwyq-63" value="" style="endArrow=classic;html=1;rounded=0;exitX=0.5;exitY=1;exitDx=0;exitDy=0;movable=0;resizable=0;rotatable=0;deletable=0;editable=0;locked=1;connectable=0;" parent="1" source="ynTtSx6pQMrLtShOTwyq-33" edge="1">
          <mxGeometry width="50" height="50" relative="1" as="geometry">
            <mxPoint x="330" y="340" as="sourcePoint" />
            <mxPoint x="205" y="390" as="targetPoint" />
          </mxGeometry>
        </mxCell>
        <mxCell id="ynTtSx6pQMrLtShOTwyq-64" value="" style="endArrow=classic;html=1;rounded=0;exitX=0.5;exitY=1;exitDx=0;exitDy=0;movable=1;resizable=1;rotatable=1;deletable=1;editable=1;locked=0;connectable=1;" parent="1" source="ynTtSx6pQMrLtShOTwyq-46" edge="1">
          <mxGeometry width="50" height="50" relative="1" as="geometry">
            <mxPoint x="330" y="340" as="sourcePoint" />
            <mxPoint x="75" y="390" as="targetPoint" />
          </mxGeometry>
        </mxCell>
        <mxCell id="ynTtSx6pQMrLtShOTwyq-65" value="" style="endArrow=classic;html=1;rounded=0;exitX=1.02;exitY=0.7;exitDx=0;exitDy=0;exitPerimeter=0;movable=0;resizable=0;rotatable=0;deletable=0;editable=0;locked=1;connectable=0;" parent="1" source="ynTtSx6pQMrLtShOTwyq-17" edge="1">
          <mxGeometry width="50" height="50" relative="1" as="geometry">
            <mxPoint x="330" y="340" as="sourcePoint" />
            <mxPoint x="250" y="140" as="targetPoint" />
          </mxGeometry>
        </mxCell>
        <mxCell id="ynTtSx6pQMrLtShOTwyq-66" value="" style="endArrow=classic;html=1;rounded=0;exitX=0.02;exitY=0.733;exitDx=0;exitDy=0;exitPerimeter=0;movable=0;resizable=0;rotatable=0;deletable=0;editable=0;locked=1;connectable=0;" parent="1" source="ynTtSx6pQMrLtShOTwyq-57" edge="1">
          <mxGeometry width="50" height="50" relative="1" as="geometry">
            <mxPoint x="55" y="207.5" as="sourcePoint" />
            <mxPoint x="25" y="217.5" as="targetPoint" />
          </mxGeometry>
        </mxCell>
        <mxCell id="ynTtSx6pQMrLtShOTwyq-67" value="" style="endArrow=classic;html=1;rounded=0;exitX=0.5;exitY=1;exitDx=0;exitDy=0;movable=0;resizable=0;rotatable=0;deletable=0;editable=0;locked=1;connectable=0;" parent="1" source="ynTtSx6pQMrLtShOTwyq-43" edge="1">
          <mxGeometry width="50" height="50" relative="1" as="geometry">
            <mxPoint x="-30" y="500" as="sourcePoint" />
            <mxPoint x="-30" y="530" as="targetPoint" />
          </mxGeometry>
        </mxCell>
        <mxCell id="ynTtSx6pQMrLtShOTwyq-68" value="" style="endArrow=classic;html=1;rounded=0;exitX=1;exitY=1;exitDx=0;exitDy=0;movable=0;resizable=0;rotatable=0;deletable=0;editable=0;locked=1;connectable=0;" parent="1" source="ynTtSx6pQMrLtShOTwyq-39" edge="1">
          <mxGeometry width="50" height="50" relative="1" as="geometry">
            <mxPoint x="260" y="530" as="sourcePoint" />
            <mxPoint x="280" y="450" as="targetPoint" />
          </mxGeometry>
        </mxCell>
        <mxCell id="VgIvNZsJJeKNYtgjhmLR-1" value="" style="ellipse;whiteSpace=wrap;html=1;movable=1;resizable=1;rotatable=1;deletable=1;editable=1;locked=0;connectable=1;" vertex="1" parent="1">
          <mxGeometry x="115" y="383" width="50" height="45" as="geometry" />
        </mxCell>
        <mxCell id="VgIvNZsJJeKNYtgjhmLR-2" value="" style="endArrow=classic;html=1;rounded=0;exitX=0.388;exitY=1;exitDx=0;exitDy=0;exitPerimeter=0;entryX=0.5;entryY=0;entryDx=0;entryDy=0;" edge="1" parent="1" source="ynTtSx6pQMrLtShOTwyq-5" target="VgIvNZsJJeKNYtgjhmLR-1">
          <mxGeometry width="50" height="50" relative="1" as="geometry">
            <mxPoint x="130" y="290" as="sourcePoint" />
            <mxPoint x="130" y="390" as="targetPoint" />
          </mxGeometry>
        </mxCell>
        <mxCell id="VgIvNZsJJeKNYtgjhmLR-4" value="" style="endArrow=classic;html=1;rounded=0;" edge="1" parent="1">
          <mxGeometry width="50" height="50" relative="1" as="geometry">
            <mxPoint x="140" y="470" as="sourcePoint" />
            <mxPoint x="140" y="430" as="targetPoint" />
          </mxGeometry>
        </mxCell>
        <mxCell id="VgIvNZsJJeKNYtgjhmLR-5" value="" style="endArrow=classic;html=1;rounded=0;exitX=0;exitY=0.5;exitDx=0;exitDy=0;" edge="1" parent="1" source="VgIvNZsJJeKNYtgjhmLR-1">
          <mxGeometry width="50" height="50" relative="1" as="geometry">
            <mxPoint x="170" y="408" as="sourcePoint" />
            <mxPoint x="80" y="420" as="targetPoint" />
          </mxGeometry>
        </mxCell>
      </root>
    </mxGraphModel>
  </diagram>
</mxfile>
